<?xml version="1.0" encoding="UTF-8" standalone="no"?>
<svg xmlns:rdf="http://www.w3.org/1999/02/22-rdf-syntax-ns#" xmlns="http://www.w3.org/2000/svg" height="1080" width="1920" version="1.1" xmlns:cc="http://creativecommons.org/ns#" xmlns:dc="http://purl.org/dc/elements/1.1/" viewBox="0 0 1920 1080" id="airbot-welcome">
 <g transform="translate(587.95 13.819)">
  <path d="m-586.69-13.819c-0.6965 0-1.2578 0.7207-1.2578 1.6171v1076.8c0 0.8965 0.5613 1.6192 1.2578 1.6192h1917.5c0.6965 0 1.2558-0.7227 1.2558-1.6192v-1076.8c0-0.8964-0.5593-1.6171-1.2558-1.6171h-1917.5zm1156.8 470c24.738 0 42.615 5.5888 53.629 16.764 11.077 11.175 14.737 28.904 10.979 53.19-3.7586 24.285-12.912 42.046-27.457 53.283-14.473 11.175-34.078 16.764-58.816 16.764-24.676 0-42.552-5.5889-53.629-16.764-11.067-11.237-14.721-28.998-10.963-53.283 3.7586-24.285 12.906-42.015 27.441-53.19 14.536-11.175 34.141-16.764 58.816-16.764zm-373.19 2.8046h77.305c14.306 0 25.425 3.8386 33.357 11.518 7.9946 7.6787 10.982 18.042 8.9629 31.09-2.8116 18.167-16.351 29.562-40.617 34.182 3.5356 1.3736 6.6366 3.7458 9.3008 7.1172 2.6739 3.3088 5.5793 8.1459 8.7168 14.514l12.865 27.064c0.72748 1.7478 0.98217 3.3415 0.75976 4.7774-0.41552 2.6845-2.2164 4.0254-5.4023 4.0254h-22.49c-2.3739-0.0001-4.8658-0.8417-7.4785-2.5274-2.5406-1.7481-4.3717-3.8406-5.4941-6.2754l-12.07-24.9c-4.9747-10.238-12.116-15.358-21.424-15.358h-22.863l-6.2324 40.268c-0.37683 2.4348-1.576 4.5273-3.5957 6.2754-1.9476 1.6857-4.1379 2.5274-6.5742 2.5274h-17.617c-2.4364-0.0001-4.3984-0.8417-5.8867-2.5274-1.4789-1.7481-2.0291-3.8406-1.6524-6.2754l10.334-66.773h35.326 39.918c6.4344 0 12.286-1.2801 17.555-3.8399 5.3313-2.5594 8.4312-6.6487 9.3008-12.268 0.86959-5.6188-0.96495-9.7063-5.5039-12.266-4.4765-2.5598-9.9328-3.8398-16.367-3.8398h-38.861l-36.387 0.031 2.7285-17.629c0.37683-2.4347 1.5448-4.5256 3.502-6.2734 1.9573-1.7481 4.1555-2.6211 6.5918-2.6211v-0.01zm155.36 0h76.184c18.678 0 31.621 5.3675 38.83 16.106 4.0173 5.9306 5.3108 13.518 3.8809 22.758-1.4204 9.1773-6.8787 17.199-16.375 24.066 10.999 6.4301 15.45 16.42 13.354 29.967-2.0967 13.547-8.5008 23.848-19.213 30.902-10.64 6.9923-22.927 10.488-36.857 10.488h-80.584c-2.4364 0-4.4004-0.8439-5.8887-2.5293-1.4788-1.7481-2.0292-3.8388-1.6524-6.2735l11.35-73.326h35.326 50.131c3.9356 0 7.2686-1.1548 10-3.4648 2.741-2.3723 4.4366-5.6489 5.084-9.832 0.65701-4.2452-0.0187-7.5554-2.0254-9.9278-2.0066-2.3723-4.9765-3.5566-8.9121-3.5566-16.702 0-33.474-0.02-50.137 0.031l-35.34 0.08 2.5684-16.588c0.37682-2.4347 1.576-4.5256 3.5957-6.2734 2.0197-1.7481 4.2453-2.6211 6.6816-2.6211v-0.01zm-311.66 0.01h50.506c2.3114 0 4.0818 0.873 5.3106 2.6211 1.291 1.7478 1.7579 3.7779 1.4004 6.0879l-18.102 116.96c-0.37682 2.4348-1.57 4.4943-3.5801 6.1797-2.0004 1.6234-4.218 2.4356-6.6543 2.4356h-17.617c-2.5613 0-4.5587-0.8122-5.9941-2.4356-1.3634-1.6854-1.8473-3.8075-1.4512-6.3672l3.6523-23.598h-48.352l-4.3301 23.598c-1.0209 2.5597-2.7558 4.6818-5.2031 6.3672-2.4377 1.6234-4.8743 2.4356-7.3106 2.4356h-18.461c-2.4363 0-4.0783-0.687-4.9277-2.0606-0.83993-1.4359-1.1778-2.6829-1.0137-3.7441 0.22671-1.0614 0.49582-1.9989 0.80859-2.8106l13.445-89.15c10.13-24.285 32.755-36.456 67.873-36.52zm94.268 0h17.428c2.5613 0 4.5507 0.873 5.9668 2.6211 1.4786 1.7478 2.0312 3.8387 1.6543 6.2734l-18.045 116.59c-0.37682 2.4347-1.6073 4.5276-3.6894 6.2754-2.01 1.6857-4.2336 2.5274-6.6699 2.5274h-17.43c-2.4363 0-4.4024-0.8122-5.9004-2.4356-1.4885-1.6854-2.0428-3.7449-1.666-6.1797l18.072-116.78c0.37682-2.4347 1.576-4.5256 3.5957-6.2734 2.0197-1.7481 4.2473-2.6211 6.6836-2.6211zm524.27 0h118.91c2.5613 0 4.5547 0.8419 5.9805 2.5273 1.4258 1.6857 1.9411 3.8075 1.5449 6.3672l-1.3633 8.8028c-0.39613 2.5598-1.5661 4.6814-3.5137 6.3672-1.938 1.623-4.1868 2.4355-6.748 2.4355h-41.795l-15.346 99.17c-0.37685 2.4348-1.572 4.4943-3.582 6.1797-1.9379 1.6234-4.1242 2.4356-6.5606 2.4356h-17.711c-2.4363 0-4.4024-0.8122-5.9004-2.4356-1.4257-1.6854-1.951-3.7449-1.5742-6.1797l15.35-99.17h-41.793c-2.5613 0-4.5586-0.8125-5.9941-2.4355-1.4258-1.6858-1.943-3.8074-1.5469-6.3672l1.3633-8.8028c0.39614-2.5597 1.5681-4.6815 3.5156-6.3672 1.9476-1.6854 4.2004-2.5273 6.7617-2.5273zm-92.965 22.475c-14.056 0-24.85 3.7447-32.381 11.236-7.4689 7.4916-12.353 18.665-14.652 33.524-2.2899 14.796-0.86094 25.942 4.2891 33.434 5.2222 7.4289 14.862 11.142 28.918 11.142 14.118 0 24.906-3.7136 32.365-11.142 7.4689-7.4916 12.349-18.638 14.639-33.434 2.2996-14.858 0.87464-26.032-4.2754-33.524-5.15-7.4916-14.784-11.236-28.902-11.236zm-533.14 4.0254c-5.9971 0-11.509 1.7214-16.541 5.1504-4.9539 3.3759-7.8594 7.494-8.7539 13.674l-4.3496 30.059h48.785l7.5644-48.883h-26.705zm333.77 50.287-4.9863 32.213h53.602c4.8102 0 8.717-1.4328 11.723-4.3047 3.0057-2.8719 4.895-6.8066 5.668-11.801 0.77296-4.9945 0.10125-8.9272-2.0156-11.799-2.1168-2.8719-5.5805-4.3086-10.391-4.3086h-53.6z" fill="#f2d543"/>
 </g>
</svg>
