<?xml version="1.0" encoding="UTF-8" standalone="no"?>
<svg xmlns:rdf="http://www.w3.org/1999/02/22-rdf-syntax-ns#" xmlns="http://www.w3.org/2000/svg" height="1080" width="1920" version="1.1" xmlns:cc="http://creativecommons.org/ns#" xmlns:dc="http://purl.org/dc/elements/1.1/" viewBox="0 0 1920 1080">
 <g transform="translate(587.95 13.819)">
  <path style="fill:#f2d543" d="m1.2578 0c-0.69648 0-1.2578 0.72073-1.2578 1.6172v1076.8c0 0.9 0.56132 1.6 1.2578 1.6h1917.4c0.7 0 1.3-0.7 1.3-1.6v-1076.8c0-0.87927-0.6-1.6-1.3-1.6h-1917.4zm1158.2 380.25c24.9 0 42.9 5.63 54 16.9 11.2 11.26 14.9 29.14 11.1 53.62-3.8 24.49-13 42.39-27.7 53.72-14.5 11.27-34.3 16.9-59.2 16.9s-42.9-5.63-54.1-16.9c-11.1-11.33-14.8-29.23-11-53.72 3.8-24.48 13-42.36 27.6-53.62 14.7-11.27 34.4-16.9 59.3-16.9zm-533.47 2.83h50.89c2.33 0 4.11 0.88 5.35 2.64 1.3 1.76 1.77 3.81 1.41 6.14l-18.24 117.92c-0.38 2.45-1.58 4.53-3.61 6.23-2.01 1.64-4.25 2.45-6.7 2.45h-17.75c-2.58 0-4.59-0.81-6.04-2.45-1.37-1.7-1.86-3.84-1.46-6.42l3.68-23.79h-48.72l-4.36 23.79c-1.03 2.58-2.78 4.72-5.24 6.42-2.46 1.64-4.91 2.45-7.37 2.45h-18.6c-2.45 0-4.11-0.69-4.97-2.07-0.84-1.45-1.18-2.71-1.01-3.78 0.22-1.07 0.49-2.01 0.81-2.83l13.55-89.88c10.2-24.49 33-36.76 68.38-36.82zm94.98 0h17.56c2.58 0 4.58 0.88 6.01 2.64 1.49 1.76 2.05 3.87 1.67 6.33l-18.19 117.54c-0.38 2.45-1.61 4.56-3.71 6.33-2.03 1.7-4.27 2.54-6.72 2.54h-17.56c-2.46 0-4.44-0.81-5.95-2.45-1.5-1.7-2.06-3.78-1.68-6.23l18.21-117.73c0.38-2.46 1.59-4.57 3.62-6.33 2.04-1.76 4.28-2.64 6.74-2.64zm62.5 0h77.89c14.41 0 25.61 3.87 33.61 11.61 8.05 7.74 11.06 18.19 9.03 31.35-2.84 18.31-16.48 29.8-40.93 34.46 3.57 1.38 6.69 3.77 9.37 7.17 2.7 3.34 5.63 8.21 8.79 14.63l12.96 27.29c0.73 1.76 0.99 3.37 0.77 4.81-0.42 2.71-2.24 4.06-5.45 4.06h-22.66c-2.39 0-4.9-0.84-7.53-2.54-2.56-1.77-4.41-3.88-5.54-6.33l-12.16-25.11c-5.02-10.33-12.21-15.49-21.59-15.49h-23.04l-6.28 40.6c-0.38 2.45-1.58 4.56-3.62 6.33-1.96 1.7-4.17 2.54-6.62 2.54h-17.75c-2.46 0-4.43-0.84-5.93-2.54-1.49-1.77-2.05-3.88-1.67-6.33l18.18-117.54c0.38-2.46 1.56-4.57 3.53-6.33s4.19-2.64 6.64-2.64zm156.53 0h76.76c18.8 0 31.9 5.41 39.1 16.24 4.1 5.98 5.4 13.62 3.9 22.94-1.4 9.25-6.9 17.34-16.5 24.26 11.1 6.49 15.6 16.56 13.5 30.21-2.1 13.66-8.6 24.05-19.4 31.16-10.7 7.05-23.1 10.57-37.1 10.57h-81.2c-2.46 0-4.43-0.84-5.93-2.54-1.49-1.77-2.05-3.88-1.67-6.33l18.18-117.54c0.38-2.46 1.59-4.57 3.62-6.33 2.04-1.76 4.28-2.64 6.74-2.64zm309.16 0h119.8c2.6 0 4.6 0.85 6.1 2.55 1.4 1.7 1.9 3.84 1.5 6.42l-1.3 8.87c-0.4 2.58-1.6 4.72-3.6 6.42-1.9 1.64-4.2 2.46-6.8 2.46h-42.1l-15.5 99.98c-0.3 2.45-1.5 4.53-3.6 6.23-1.9 1.64-4.1 2.45-6.6 2.45h-17.8c-2.5 0-4.5-0.81-6-2.45-1.4-1.7-1.9-3.78-1.6-6.23l15.5-99.98h-42.1c-2.6 0-4.6-0.82-6-2.46-1.5-1.7-2-3.84-1.6-6.42l1.4-8.87c0.4-2.58 1.6-4.72 3.5-6.42 2-1.7 4.3-2.55 6.8-2.55zm-93.6 22.66c-14.2 0-25.1 3.77-32.7 11.33-7.5 7.55-12.4 18.82-14.7 33.8-2.3 14.91-0.9 26.15 4.3 33.7 5.3 7.49 15 11.24 29.1 11.24 14.3 0 25.1-3.75 32.6-11.24 7.6-7.55 12.5-18.79 14.8-33.7 2.3-14.98 0.9-26.25-4.3-33.8-5.2-7.56-14.9-11.33-29.1-11.33zm-192.89 2.92l-4.18 27.01h50.47c4 0 7.4-1.17 10.1-3.5 2.8-2.39 4.5-5.69 5.1-9.91 0.7-4.28 0-7.62-2-10.01s-5-3.59-9-3.59h-50.49zm-344.31 1.14c-6.04 0-11.59 1.73-16.66 5.19-4.99 3.4-7.92 7.55-8.82 13.78l-4.38 30.31h49.15l7.62-49.28h-26.91zm187.79 0l-5.02 32.48h40.21c6.49 0 12.38-1.3 17.69-3.88 5.37-2.58 8.5-6.7 9.37-12.36 0.88-5.67-0.97-9.79-5.54-12.37-4.51-2.58-10.01-3.87-16.49-3.87h-40.22zm148.5 50.7l-5.02 32.47h54.03c4.8 0 8.8-1.44 11.8-4.34 3-2.89 4.9-6.86 5.7-11.9 0.8-5.03 0.1-8.99-2-11.89-2.2-2.9-5.7-4.34-10.5-4.34h-54.01z" transform="translate(-587.95 -13.819)"/>
 </g>
</svg>
