<?xml version="1.0" encoding="UTF-8" standalone="no"?>
<svg xmlns:rdf="http://www.w3.org/1999/02/22-rdf-syntax-ns#" xmlns="http://www.w3.org/2000/svg" version="1.1" xmlns:cc="http://creativecommons.org/ns#" xmlns:dc="http://purl.org/dc/elements/1.1/" viewBox="0 0 1920 1080">
 <g style="display:none">
  <rect style="fill:#f2d543;display:inline" transform="translate(587.95 13.819)" height="1080" width="1920" y="-13.819" x="-587.95"/>
  <path style="display:inline" transform="translate(587.95 13.819)" d="m570.06 456.18c-24.676 0-44.281 5.5869-58.816 16.762-14.536 11.175-23.683 28.904-27.441 53.189-3.7586 24.285-0.1045 42.046 10.963 53.283 11.077 11.175 28.953 16.766 53.629 16.766 24.738 0 44.343-5.5909 58.816-16.766 14.546-11.237 23.698-28.998 27.457-53.283 3.7586-24.285 0.0983-42.014-10.978-53.189-11.014-11.175-28.891-16.762-53.629-16.762zm-373.19 2.8027v0.01c-2.4363 0-4.6345 0.873-6.5918 2.6211-1.9572 1.7478-3.1251 3.8387-3.502 6.2734l-2.7285 17.629 36.387-0.031h38.861c6.4344 0 11.891 1.28 16.367 3.8398 4.539 2.5594 6.3735 6.6468 5.5039 12.266-0.86959 5.6188-3.9695 9.7082-9.3008 12.268-5.2688 2.5598-11.12 3.8398-17.555 3.8398h-39.918-35.326l-10.334 66.774c-0.37679 2.4348 0.17348 4.5273 1.6524 6.2754 1.4883 1.6857 3.4504 2.5292 5.8867 2.5293h17.617c2.4364 0 4.6267-0.8436 6.5742-2.5293 2.0197-1.7481 3.2189-3.8406 3.5957-6.2754l6.2324-40.268h22.863c9.308 0 16.449 5.1189 21.424 15.357l12.076 24.91c1.1224 2.4348 2.9535 4.5273 5.4941 6.2754 2.6127 1.6857 5.1046 2.5292 7.4785 2.5293h22.49c3.186 0 4.9868-1.3429 5.4023-4.0274 0.22241-1.4359-0.0323-3.0295-0.75976-4.7773l-12.86-27.05c-3.1375-6.3678-6.0429-11.205-8.7168-14.514-2.6642-3.3714-5.7652-5.7436-9.3008-7.1172 24.266-4.6197 37.806-16.014 40.617-34.182 2.0194-13.048-0.96828-23.411-8.9629-31.09-7.9321-7.679-19.052-11.518-33.357-11.518h-77.305zm155.36 0v0.01c-2.4363 0-4.662 0.873-6.6816 2.6211-2.0197 1.7478-3.2189 3.8387-3.5957 6.2734l-2.5684 16.588 35.34-0.08c16.663-0.051 33.435-0.031 50.137-0.031 3.9356 0 6.9054 1.1843 8.9121 3.5566 2.0067 2.3724 2.6824 5.6825 2.0254 9.9277-0.6474 4.1831-2.343 7.4598-5.084 9.8321-2.7314 2.31-6.0644 3.4648-10 3.4648h-50.131-35.326l-11.35 73.326c-0.37682 2.4347 0.17351 4.5273 1.6524 6.2754 1.4883 1.6854 3.4523 2.5293 5.8887 2.5293h80.584c13.931 0 26.217-3.498 36.857-10.49 10.712-7.0544 17.116-17.355 19.213-30.902 2.0967-13.547-2.3545-23.537-13.354-29.967 9.4963-6.8673 14.955-14.889 16.375-24.066 1.43-9.2394 0.1364-16.827-3.8808-22.758-7.2089-10.738-20.152-16.106-38.83-16.106h-76.184zm-311.66 0.012c-35.118 0.064-57.743 12.234-67.873 36.52l-13.445 89.15c-0.31277 0.8117-0.58188 1.7492-0.80859 2.8106-0.16418 1.0612 0.17374 2.3082 1.0137 3.7441 0.84942 1.3736 2.4914 2.0606 4.9277 2.0606h18.461c2.4363 0 4.8729-0.8122 7.3106-2.4356 2.4473-1.6854 4.1823-3.8075 5.2031-6.3672l4.3301-23.598h48.352l-3.6523 23.598c-0.39611 2.5597 0.0878 4.6818 1.4512 6.3672 1.4354 1.6234 3.4328 2.4356 5.9941 2.4356h17.617c2.4363 0 4.654-0.8122 6.6543-2.4356 2.01-1.6854 3.2032-3.7449 3.5801-6.1797l18.102-116.96c0.35748-2.31-0.10937-4.3401-1.4004-6.0879-1.2288-1.7481-2.9992-2.6211-5.3106-2.6211h-50.506zm94.268 0c-2.4363 0-4.6639 0.873-6.6836 2.6211-2.0197 1.7478-3.2189 3.8388-3.5957 6.2735l-18.072 116.78c-0.37682 2.4348 0.1775 4.4943 1.666 6.1797 1.4979 1.6234 3.4641 2.4356 5.9004 2.4356h17.43c2.4363 0 4.6599-0.8417 6.6699-2.5274 2.0822-1.7478 3.3126-3.8407 3.6894-6.2754l18.045-116.59c0.37686-2.4347-0.17568-4.5257-1.6543-6.2735-1.4161-1.7481-3.4055-2.6211-5.9668-2.6211h-17.428zm524.27 0c-2.5613 0-4.8141 0.842-6.7617 2.5274-1.9476 1.6857-3.1195 3.8075-3.5156 6.3672l-1.3633 8.8027c-0.3962 2.5598 0.1211 4.6814 1.5469 6.3672 1.4355 1.623 3.4328 2.4355 5.9941 2.4355h41.793l-15.35 99.17c-0.3769 2.4348 0.1484 4.4943 1.5742 6.1797 1.4979 1.6234 3.4641 2.4356 5.9004 2.4356h17.711c2.4363 0 4.6226-0.8122 6.5606-2.4356 2.01-1.6854 3.2051-3.7449 3.582-6.1797l15.346-99.17h41.795c2.5612 0 4.8101-0.8125 6.7481-2.4355 1.9475-1.6858 3.1175-3.8074 3.5136-6.3672l1.3633-8.8027c0.3962-2.5597-0.1191-4.6815-1.5449-6.3672-1.4258-1.6854-3.4192-2.5274-5.9805-2.5274h-118.91zm-92.965 22.475c14.118 0 23.752 3.7448 28.902 11.236 5.15 7.4916 6.575 18.665 4.2754 33.523-2.2899 14.796-7.1698 25.942-14.639 33.434-7.4592 7.4289-18.247 11.143-32.365 11.143-14.056 0-23.696-3.7137-28.918-11.143-5.15-7.4916-6.579-18.638-4.289-33.434 2.2996-14.858 7.1834-26.032 14.652-33.523 7.5314-7.4916 18.325-11.236 32.381-11.236zm-533.14 4.0254h26.705l-7.5644 48.883h-48.785l4.3496-30.059c0.8945-6.1798 3.8-10.298 8.7539-13.674 5.0324-3.429 10.544-5.1504 16.541-5.1504zm333.77 50.287h53.6c4.8102 0 8.2738 1.4367 10.391 4.3086 2.1168 2.8716 2.7885 6.8044 2.0156 11.799-0.773 4.9942-2.6623 8.9288-5.668 11.801-3.0057 2.8719-6.9125 4.3047-11.723 4.3047h-53.602l4.9863-32.213z"/>
 </g>
 <g transform="translate(587.95 13.819)">
  <path style="fill:#f2d543" d="m0 0v1080h1920v-1080h-1920zm1158 380.3c24.738 0 42.615 5.5869 53.629 16.762 11.077 11.175 14.737 28.904 10.978 53.189-3.7586 24.285-12.912 42.046-27.457 53.283-14.473 11.175-34.078 16.766-58.816 16.766-24.676 0-42.552-5.5908-53.629-16.766-11.067-11.237-14.722-28.998-10.963-53.283 3.7585-24.285 12.906-42.015 27.441-53.189 14.536-11.175 34.141-16.762 58.816-16.762zm-373.19 2.8066h77.305c14.306 0 25.425 3.8386 33.357 11.518 7.9946 7.6787 10.982 18.042 8.9629 31.09-2.8116 18.167-16.351 29.562-40.617 34.182 3.5356 1.3736 6.6366 3.7458 9.3008 7.1172 2.6739 3.3088 5.5793 8.1459 8.7168 14.514l12.865 27.064c0.72746 1.7478 0.98217 3.3414 0.75976 4.7773-0.41552 2.6845-2.2164 4.0274-5.4023 4.0274h-22.49c-2.3739-0.0001-4.8658-0.8436-7.4785-2.5293-2.5406-1.7481-4.3717-3.8406-5.4941-6.2754l-12.076-24.91c-4.9747-10.238-12.116-15.357-21.424-15.357h-22.863l-6.2324 40.268c-0.37683 2.4348-1.576 4.5273-3.5957 6.2754-1.9476 1.6857-4.1379 2.5293-6.5742 2.5293h-17.617c-2.4364-0.0001-4.3984-0.8436-5.8867-2.5293-1.4789-1.7481-2.0291-3.8406-1.6524-6.2754l10.334-66.773h35.326 39.918c6.4344 0 12.286-1.28 17.555-3.8398 5.3313-2.5594 8.4312-6.6488 9.3008-12.268 0.86959-5.6188-0.96494-9.7062-5.5039-12.266-4.4765-2.5598-9.9328-3.8398-16.367-3.8398h-38.861l-36.387 0.0312 2.7285-17.629c0.37683-2.4347 1.5448-4.5256 3.502-6.2734 1.9573-1.7481 4.1555-2.6211 6.5918-2.6211v-0.006zm155.36 0h76.184c18.678 0 31.621 5.3675 38.83 16.105 4.0172 5.9306 5.3108 13.518 3.8808 22.758-1.4203 9.1773-6.8787 17.199-16.375 24.066 10.999 6.4301 15.45 16.42 13.354 29.967-2.0966 13.547-8.5007 23.848-19.213 30.902-10.64 6.9923-22.927 10.49-36.857 10.49h-80.584c-2.4364 0-4.4004-0.8439-5.8887-2.5293-1.4788-1.7481-2.0292-3.8407-1.6524-6.2754l11.35-73.326h35.326 50.131c3.9356 0 7.2686-1.1548 10-3.4648 2.741-2.3723 4.4366-5.6489 5.084-9.832 0.657-4.2452-0.019-7.5553-2.0254-9.9277-2.0067-2.3723-4.9765-3.5566-8.9121-3.5566-16.702 0-33.474-0.0198-50.137 0.0312l-35.34 0.0801 2.5684-16.588c0.37682-2.4347 1.576-4.5256 3.5957-6.2734 2.0197-1.7481 4.2453-2.6211 6.6816-2.6211v-0.006zm-311.66 0.008h50.506c2.3114 0 4.0818 0.87299 5.3106 2.6211 1.291 1.7478 1.7579 3.7779 1.4004 6.0879l-18.102 116.96c-0.37682 2.4348-1.57 4.4943-3.5801 6.1797-2.0004 1.6234-4.218 2.4355-6.6543 2.4355h-17.617c-2.5613 0-4.5587-0.81214-5.9941-2.4355-1.3634-1.6854-1.8473-3.8075-1.4512-6.3672l3.6523-23.598h-48.352l-4.3301 23.598c-1.0209 2.5597-2.7558 4.6818-5.2031 6.3672-2.4377 1.6234-4.8743 2.4355-7.3106 2.4355h-18.461c-2.4363 0-4.0783-0.68694-4.9277-2.0605-0.83993-1.4359-1.1778-2.6829-1.0137-3.7441 0.22671-1.0614 0.49582-1.9988 0.80859-2.8106l13.445-89.15c10.13-24.285 32.755-36.456 67.873-36.52zm94.268 0h17.428c2.5613 0 4.5507 0.87299 5.9668 2.6211 1.4786 1.7478 2.0312 3.8387 1.6543 6.2734l-18.045 116.59c-0.37682 2.4347-1.6073 4.5276-3.6894 6.2754-2.01 1.6857-4.2336 2.5273-6.6699 2.5273h-17.43c-2.4363 0-4.4024-0.81214-5.9004-2.4355-1.4885-1.6854-2.0428-3.7449-1.666-6.1797l18.072-116.78c0.37682-2.4347 1.576-4.5256 3.5957-6.2734 2.0197-1.7481 4.2473-2.6211 6.6836-2.6211zm524.27 0h118.91c2.5613 0 4.5547 0.84194 5.9805 2.5273 1.4258 1.6857 1.9411 3.8075 1.5449 6.3672l-1.3633 8.8027c-0.3961 2.5598-1.5661 4.6814-3.5136 6.3672-1.938 1.623-4.1869 2.4356-6.7481 2.4356h-41.795l-15.346 99.17c-0.3769 2.4348-1.572 4.4943-3.582 6.1797-1.938 1.6234-4.1243 2.4355-6.5606 2.4355h-17.711c-2.4363 0-4.4025-0.81214-5.9004-2.4355-1.4258-1.6854-1.9511-3.7449-1.5742-6.1797l15.35-99.17h-41.793c-2.5613 0-4.5586-0.81255-5.9941-2.4356-1.4258-1.6858-1.9431-3.8074-1.5469-6.3672l1.3633-8.8027c0.3961-2.5597 1.568-4.6815 3.5156-6.3672 1.9476-1.6854 4.2004-2.5273 6.7617-2.5273zm-92.965 22.475c-14.056 0-24.85 3.7447-32.381 11.236-7.4689 7.4916-12.353 18.665-14.652 33.523-2.29 14.796-0.861 25.942 4.289 33.434 5.2222 7.4289 14.862 11.143 28.918 11.143 14.118 0 24.906-3.7137 32.365-11.143 7.4689-7.4916 12.349-18.638 14.639-33.434 2.2996-14.858 0.8746-26.032-4.2754-33.523-5.1499-7.4916-14.784-11.236-28.902-11.236zm-533.14 4.0254c-5.9971 0-11.509 1.7214-16.541 5.1504-4.9539 3.3759-7.8594 7.494-8.7539 13.674l-4.3496 30.059h48.785l7.5644-48.883h-26.705zm333.77 50.287-4.9863 32.213h53.602c4.81 0 8.7169-1.4328 11.723-4.3047 3.0057-2.8719 4.895-6.8066 5.668-11.801 0.7729-4.9945 0.1012-8.9272-2.0156-11.799-2.1169-2.8719-5.5805-4.3086-10.391-4.3086h-53.6z" transform="translate(-587.95 -13.819)"/>
 </g>
</svg>
