<?xml version="1.0" encoding="UTF-8" standalone="no"?>
<!-- Created with Inkscape (http://www.inkscape.org/) -->

<svg
   xmlns:dc="http://purl.org/dc/elements/1.1/"
   xmlns:cc="http://creativecommons.org/ns#"
   xmlns:rdf="http://www.w3.org/1999/02/22-rdf-syntax-ns#"
   xmlns:svg="http://www.w3.org/2000/svg"
   xmlns="http://www.w3.org/2000/svg"
   xmlns:sodipodi="http://sodipodi.sourceforge.net/DTD/sodipodi-0.dtd"
   xmlns:inkscape="http://www.inkscape.org/namespaces/inkscape"
   width="1920"
   height="1080"
   viewBox="0 0 1920 1080"
   id="svg2"
   version="1.1"
   inkscape:version="0.91 r13725"
   sodipodi:docname="slide-0.svg">
  <defs
     id="defs4" />
  <sodipodi:namedview
     id="base"
     pagecolor="#ffffff"
     bordercolor="#666666"
     borderopacity="0"
     inkscape:pageopacity="0.0"
     inkscape:pageshadow="2"
     inkscape:zoom="0.27869489"
     inkscape:cx="1242.7464"
     inkscape:cy="1080.1902"
     inkscape:document-units="px"
     inkscape:current-layer="layer3"
     showgrid="false"
     inkscape:window-width="1920"
     inkscape:window-height="1138"
     inkscape:window-x="1912"
     inkscape:window-y="-8"
     inkscape:window-maximized="1"
     units="px"
     fit-margin-top="0"
     fit-margin-left="0"
     fit-margin-right="0"
     fit-margin-bottom="0"
     showborder="false" />
  <metadata
     id="metadata7">
    <rdf:RDF>
      <cc:Work
         rdf:about="">
        <dc:format>image/svg+xml</dc:format>
        <dc:type
           rdf:resource="http://purl.org/dc/dcmitype/StillImage" />
        <dc:title></dc:title>
      </cc:Work>
    </rdf:RDF>
  </metadata>
  <g
     inkscape:groupmode="layer"
     id="layer1"
     inkscape:label="Original"
     style="display:none"
     sodipodi:insensitive="true">
    <rect
       transform="translate(587.95273,13.818898)"
       y="-13.818898"
       x="-587.95276"
       height="1080"
       width="1920"
       id="rect5359"
       style="display:inline;opacity:1;fill:#f2d543;fill-opacity:1;stroke:none;stroke-width:4;stroke-linejoin:round;stroke-opacity:0.18208953" />
    <path
       transform="translate(587.95273,13.818898)"
       style="display:inline;opacity:1;fill:#000000;fill-opacity:1;stroke:none;stroke-width:4;stroke-linejoin:round;stroke-opacity:0.18208953"
       d="m 570.06436,456.1811 c -24.6756,0 -44.2806,5.5869 -58.8164,16.7617 -14.5358,11.1749 -23.6829,28.9042 -27.4414,53.1894 -3.7586,24.2853 -0.1045,42.0459 10.9629,53.2832 11.0767,11.1748 28.9533,16.7657 53.6289,16.7657 24.738,0 44.343,-5.5909 58.8164,-16.7657 14.5455,-11.2373 23.6984,-28.9979 27.457,-53.2832 3.7586,-24.2852 0.0983,-42.0145 -10.9785,-53.1894 -11.0143,-11.1748 -28.8909,-16.7617 -53.6289,-16.7617 z m -373.18557,2.8027 0,0.01 c -2.43631,0 -4.63454,0.873 -6.5918,2.6211 -1.9572,1.7478 -3.12512,3.8387 -3.50195,6.2734 l -2.72851,17.6289 36.38671,-0.031 38.86133,0 c 6.43437,0 11.8907,1.28 16.36719,3.8398 4.53897,2.5594 6.3735,6.6468 5.50391,12.2656 -0.86959,5.6188 -3.96953,9.7082 -9.30079,12.2676 -5.26879,2.5598 -11.12032,3.8398 -17.55468,3.8398 l -39.91797,0 -35.32617,0 -10.33399,66.7735 c -0.37679,2.4348 0.17348,4.5273 1.65235,6.2754 1.48827,1.6857 3.45036,2.5292 5.88672,2.5293 l 17.61718,0 c 2.43635,0 4.62666,-0.8436 6.57422,-2.5293 2.01972,-1.7481 3.21887,-3.8406 3.5957,-6.2754 l 6.23243,-40.2676 22.86328,0 c 9.308,0 16.44912,5.1189 21.42383,15.3574 l 12.07617,24.9102 c 1.12245,2.4348 2.95352,4.5273 5.49414,6.2754 2.61269,1.6857 5.10465,2.5292 7.47851,2.5293 l 22.49024,0 c 3.18595,0 4.98682,-1.3429 5.40234,-4.0274 0.22241,-1.4359 -0.0323,-3.0295 -0.75976,-4.7773 L 293.90418,557.408 c -3.13746,-6.3678 -6.04293,-11.2048 -8.7168,-14.5136 -2.66422,-3.3714 -5.76515,-5.7436 -9.30078,-7.1172 24.2661,-4.6197 37.80555,-16.0144 40.61719,-34.1817 2.01941,-13.0476 -0.96828,-23.4111 -8.96289,-31.0898 -7.93214,-7.679 -19.05181,-11.5176 -33.35742,-11.5176 l -77.30469,0 z m 155.35547,0 0,0.01 c -2.43631,0 -4.66195,0.873 -6.68164,2.6211 -2.01969,1.7478 -3.21888,3.8387 -3.5957,6.2734 l -2.56836,16.5879 35.33984,-0.08 c 16.66305,-0.051 33.43466,-0.031 50.13676,-0.031 3.9356,0 6.9054,1.1843 8.9121,3.5566 2.0067,2.3724 2.6824,5.6825 2.0254,9.9277 -0.6474,4.1831 -2.343,7.4598 -5.084,9.8321 -2.7314,2.31 -6.0644,3.4648 -10,3.4648 l -50.13088,0 -35.32618,0 -11.34961,73.3262 c -0.37682,2.4347 0.17351,4.5273 1.65235,6.2754 1.48829,1.6854 3.45232,2.5293 5.88867,2.5293 l 80.58398,0 c 13.93077,0 26.21737,-3.498 36.85747,-10.4903 10.7121,-7.0544 17.1162,-17.355 19.2128,-30.9023 2.0967,-13.5472 -2.3545,-23.5367 -13.3535,-29.9668 9.4963,-6.8673 14.9547,-14.8891 16.375,-24.0664 1.43,-9.2394 0.1364,-16.8272 -3.8808,-22.7578 -7.2089,-10.738 -20.1516,-16.1055 -38.8301,-16.1055 l -76.1836,0 z m -311.656246,0.012 c -35.1177,0.064 -57.74259,12.2344 -67.873046,36.5196 l -13.44531,89.1503 c -0.31277,0.8117 -0.58188,1.7492 -0.80859,2.8106 -0.16418,1.0612 0.17374,2.3082 1.01367,3.7441 0.84942,1.3736 2.49141,2.0606 4.92773,2.0606 l 18.460936,0 c 2.43629,0 4.87289,-0.8122 7.31055,-2.4356 2.44733,-1.6854 4.18226,-3.8075 5.20312,-6.3672 l 4.33008,-23.5976 48.35156,0 -3.65234,23.5976 c -0.39611,2.5597 0.0878,4.6818 1.45117,6.3672 1.43544,1.6234 3.43284,2.4356 5.99414,2.4356 l 17.61719,0 c 2.43628,0 4.65395,-0.8122 6.6543,-2.4356 2.01002,-1.6854 3.20325,-3.7449 3.58007,-6.1797 l 18.10157,-116.9609 c 0.35748,-2.31 -0.10937,-4.3401 -1.40039,-6.0879 -1.22875,-1.7481 -2.99918,-2.6211 -5.31055,-2.6211 l -50.50586,0 z m 94.267576,0 c -2.43631,0 -4.66388,0.873 -6.6836,2.6211 -2.01969,1.7478 -3.21888,3.8388 -3.5957,6.2735 l -18.07226,116.7753 c -0.37682,2.4348 0.1775,4.4943 1.66601,6.1797 1.49794,1.6234 3.46407,2.4356 5.90039,2.4356 l 17.42969,0 c 2.43632,0 4.65987,-0.8417 6.66992,-2.5274 2.08215,-1.7478 3.31263,-3.8407 3.68945,-6.2754 l 18.04493,-116.5878 c 0.37686,-2.4347 -0.17568,-4.5257 -1.6543,-6.2735 -1.4161,-1.7481 -3.40553,-2.6211 -5.9668,-2.6211 l -17.42773,0 z m 524.27147,0 c -2.5613,0 -4.8141,0.842 -6.7617,2.5274 -1.9476,1.6857 -3.1195,3.8075 -3.5156,6.3672 l -1.3633,8.8027 c -0.3962,2.5598 0.1211,4.6814 1.5469,6.3672 1.4355,1.623 3.4328,2.4355 5.9941,2.4355 l 41.793,0 -15.3496,99.1699 c -0.3769,2.4348 0.1484,4.4943 1.5742,6.1797 1.4979,1.6234 3.4641,2.4356 5.9004,2.4356 l 17.7109,0 c 2.4363,0 4.6226,-0.8122 6.5606,-2.4356 2.01,-1.6854 3.2051,-3.7449 3.582,-6.1797 l 15.3457,-99.1699 41.7949,0 c 2.5612,0 4.8101,-0.8125 6.7481,-2.4355 1.9475,-1.6858 3.1175,-3.8074 3.5136,-6.3672 l 1.3633,-8.8027 c 0.3962,-2.5597 -0.1191,-4.6815 -1.5449,-6.3672 -1.4258,-1.6854 -3.4192,-2.5274 -5.9805,-2.5274 l -118.9121,0 z m -92.9648,22.4746 c 14.1182,0 23.7524,3.7448 28.9023,11.2364 5.15,7.4916 6.575,18.6653 4.2754,33.5234 -2.2899,14.7961 -7.1698,25.942 -14.6387,33.4336 -7.4592,7.4289 -18.247,11.1426 -32.3652,11.1426 -14.0557,0 -23.6958,-3.7137 -28.918,-11.1426 -5.15,-7.4916 -6.579,-18.6375 -4.289,-33.4336 2.2996,-14.8581 7.1834,-26.0318 14.6523,-33.5234 7.5314,-7.4916 18.3252,-11.2364 32.3809,-11.2364 z m -533.142606,4.0254 26.70508,0 -7.56445,48.8828 -48.78516,0 4.34961,-30.0586 c 0.8945,-6.1798 3.79998,-10.2979 8.75391,-13.6738 5.03241,-3.429 10.54392,-5.1504 16.54101,-5.1504 z m 333.765626,50.2871 53.59958,0 c 4.8102,0 8.2738,1.4367 10.3907,4.3086 2.1168,2.8716 2.7885,6.8044 2.0156,11.7989 -0.773,4.9942 -2.6623,8.9288 -5.668,11.8007 -3.0057,2.8719 -6.9125,4.3047 -11.7226,4.3047 l -53.60161,0 4.98633,-32.2129 z"
       id="path5361"
       inkscape:connector-curvature="0" />
  </g>
  <g
     inkscape:groupmode="layer"
     id="layer3"
     inkscape:label="Welcome Slide"
     style="display:inline"
     transform="translate(587.95273,13.818898)">
    <path
       style="opacity:1;fill:#f2d543;fill-opacity:1;stroke:none;stroke-width:4;stroke-linejoin:round;stroke-opacity:0.18208953"
       d="m 0,0 0,1080 1920,0 L 1920,0 0,0 Z m 1158.0176,380.29688 c 24.738,0 42.6146,5.58691 53.6289,16.76171 11.0768,11.1749 14.7371,28.90426 10.9785,53.18946 -3.7586,24.2853 -12.9115,42.0459 -27.457,53.2832 -14.4734,11.1748 -34.0784,16.76563 -58.8164,16.76563 -24.6756,0 -42.5522,-5.59083 -53.6289,-16.76563 -11.0674,-11.2373 -14.7215,-28.9979 -10.9629,-53.2832 3.7585,-24.2852 12.9056,-42.01456 27.4414,-53.18946 14.5358,-11.1748 34.1408,-16.76171 58.8164,-16.76171 z m -373.18557,2.80664 77.30469,0 c 14.30561,0 25.42528,3.83857 33.35742,11.51757 7.99461,7.6787 10.9823,18.04225 8.96289,31.08985 -2.81164,18.1673 -16.35109,29.56194 -40.61719,34.18164 3.53563,1.3736 6.63656,3.74579 9.30078,7.11719 2.67387,3.3088 5.57934,8.14587 8.7168,14.51367 l 12.86524,27.06445 c 0.72746,1.7478 0.98217,3.34144 0.75976,4.77734 -0.41552,2.6845 -2.21639,4.02735 -5.40234,4.02735 l -22.49024,0 c -2.37386,-10e-5 -4.86582,-0.8436 -7.47851,-2.5293 -2.54062,-1.7481 -4.37169,-3.84059 -5.49414,-6.27539 l -12.07617,-24.91016 c -4.97471,-10.2385 -12.11583,-15.35742 -21.42383,-15.35742 l -22.86328,0 -6.23243,40.26758 c -0.37683,2.4348 -1.57598,4.52729 -3.5957,6.27539 -1.94756,1.6857 -4.13787,2.5293 -6.57422,2.5293 l -17.61718,0 c -2.43637,-10e-5 -4.39845,-0.8436 -5.88672,-2.5293 -1.47887,-1.7481 -2.02914,-3.84059 -1.65235,-6.27539 l 10.33399,-66.77344 35.32617,0 39.91797,0 c 6.43436,0 12.2859,-1.28004 17.55468,-3.83984 5.33126,-2.5594 8.4312,-6.64878 9.30079,-12.26758 0.86959,-5.6188 -0.96494,-9.70622 -5.50391,-12.26562 -4.47649,-2.5598 -9.93282,-3.83985 -16.36719,-3.83985 l -38.86133,0 -36.38671,0.0312 2.72851,-17.6289 c 0.37683,-2.4347 1.54475,-4.52564 3.50195,-6.27344 1.95726,-1.7481 4.15549,-2.62109 6.5918,-2.62109 l 0,-0.006 z m 155.35547,0 76.1836,0 c 18.6785,0 31.6212,5.36746 38.8301,16.10546 4.0172,5.9306 5.3108,13.51842 3.8808,22.75782 -1.4203,9.1773 -6.8787,17.1991 -16.375,24.0664 10.999,6.4301 15.4502,16.4196 13.3535,29.9668 -2.0966,13.5473 -8.5007,23.84794 -19.2128,30.90234 -10.6401,6.9923 -22.9267,10.49024 -36.85747,10.49024 l -80.58398,0 c -2.43635,0 -4.40038,-0.8439 -5.88867,-2.5293 -1.47884,-1.7481 -2.02917,-3.84069 -1.65235,-6.27539 l 11.34961,-73.32617 35.32618,0 50.13088,0 c 3.9356,0 7.2686,-1.15484 10,-3.46484 2.741,-2.3723 4.4366,-5.64894 5.084,-9.83204 0.657,-4.2452 -0.019,-7.55533 -2.0254,-9.92773 -2.0067,-2.3723 -4.9765,-3.55664 -8.9121,-3.55664 -16.70214,0 -33.47371,-0.0198 -50.13676,0.0312 l -35.33984,0.0801 2.56836,-16.58789 c 0.37682,-2.4347 1.57601,-4.52564 3.5957,-6.27344 2.01969,-1.7481 4.24533,-2.62109 6.68164,-2.62109 l 0,-0.006 z m -311.65625,0.008 50.50586,0 c 2.31137,0 4.0818,0.87299 5.31055,2.62109 1.29102,1.7478 1.75787,3.77789 1.40039,6.08789 l -18.10157,116.96094 c -0.37682,2.4348 -1.57005,4.49429 -3.58007,6.17969 -2.00035,1.6234 -4.21802,2.43554 -6.6543,2.43554 l -17.61719,0 c -2.5613,0 -4.5587,-0.81214 -5.99414,-2.43554 -1.36337,-1.6854 -1.84728,-3.80749 -1.45117,-6.36719 l 3.65234,-23.59766 -48.35156,0 -4.33008,23.59766 c -1.02086,2.5597 -2.75579,4.68179 -5.20312,6.36719 -2.43766,1.6234 -4.87426,2.43554 -7.31055,2.43554 l -18.46094,0 c -2.43632,0 -4.07831,-0.68694 -4.92773,-2.06054 -0.83993,-1.4359 -1.17785,-2.68294 -1.01367,-3.74414 0.22671,-1.0614 0.49582,-1.99885 0.80859,-2.81055 l 13.44531,-89.15039 c 10.13046,-24.2852 32.75535,-36.45553 67.87305,-36.51953 z m 94.26758,0 17.42773,0 c 2.56127,0 4.5507,0.87299 5.9668,2.62109 1.47862,1.7478 2.03116,3.83874 1.6543,6.27344 l -18.04493,116.58789 c -0.37682,2.4347 -1.6073,4.52759 -3.68945,6.27539 -2.01005,1.6857 -4.2336,2.52734 -6.66992,2.52734 l -17.42969,0 c -2.43632,0 -4.40245,-0.81214 -5.90039,-2.43554 -1.48851,-1.6854 -2.04283,-3.74489 -1.66601,-6.17969 l 18.07226,-116.77539 c 0.37682,-2.4347 1.57601,-4.52564 3.5957,-6.27344 2.01972,-1.7481 4.24729,-2.62109 6.6836,-2.62109 z m 524.27147,0 118.9121,0 c 2.5613,0 4.5547,0.84194 5.9805,2.52734 1.4258,1.6857 1.9411,3.80749 1.5449,6.36719 l -1.3633,8.80273 c -0.3961,2.5598 -1.5661,4.68139 -3.5136,6.36719 -1.938,1.623 -4.1869,2.43555 -6.7481,2.43555 l -41.7949,0 -15.3457,99.16992 c -0.3769,2.4348 -1.572,4.49429 -3.582,6.17969 -1.938,1.6234 -4.1243,2.43554 -6.5606,2.43554 l -17.7109,0 c -2.4363,0 -4.4025,-0.81214 -5.9004,-2.43554 -1.4258,-1.6854 -1.9511,-3.74489 -1.5742,-6.17969 l 15.3496,-99.16992 -41.793,0 c -2.5613,0 -4.5586,-0.81255 -5.9941,-2.43555 -1.4258,-1.6858 -1.9431,-3.80739 -1.5469,-6.36719 l 1.3633,-8.80273 c 0.3961,-2.5597 1.568,-4.68149 3.5156,-6.36719 1.9476,-1.6854 4.2004,-2.52734 6.7617,-2.52734 z m -92.9648,22.47461 c -14.0557,0 -24.8495,3.74473 -32.3809,11.23633 -7.4689,7.4916 -12.3527,18.66533 -14.6523,33.52343 -2.29,14.7961 -0.861,25.942 4.289,33.4336 5.2222,7.4289 14.8623,11.14258 28.918,11.14258 14.1182,0 24.906,-3.71368 32.3652,-11.14258 7.4689,-7.4916 12.3488,-18.6375 14.6387,-33.4336 2.2996,-14.8581 0.8746,-26.03183 -4.2754,-33.52343 -5.1499,-7.4916 -14.7841,-11.23633 -28.9023,-11.23633 z m -533.14261,4.02539 c -5.99709,0 -11.5086,1.72139 -16.54101,5.15039 -4.95394,3.3759 -7.85941,7.49403 -8.75391,13.67383 l -4.34961,30.05859 48.78516,0 7.56445,-48.88281 -26.70508,0 z m 333.76563,50.28711 -4.98633,32.21289 53.60161,0 c 4.81,0 8.7169,-1.43279 11.7226,-4.30469 3.0057,-2.8719 4.895,-6.80658 5.668,-11.80078 0.7729,-4.9945 0.1012,-8.92723 -2.0156,-11.79883 -2.1169,-2.8719 -5.5805,-4.30859 -10.3907,-4.30859 l -53.59958,0 z"
       transform="translate(-587.95273,-13.818898)"
       id="rect5356"
       inkscape:connector-curvature="0" />
  </g>
</svg>
