<?xml version="1.0" encoding="UTF-8" standalone="no"?>
<svg xmlns:rdf="http://www.w3.org/1999/02/22-rdf-syntax-ns#" xmlns="http://www.w3.org/2000/svg" height="47" width="30" version="1.1" xmlns:cc="http://creativecommons.org/ns#" xmlns:dc="http://purl.org/dc/elements/1.1/" viewBox="0 0 30 47">
 <g transform="translate(-357.05 -502.68)">
  <path class="svg-test" d="m367.34 502.68c-5.704 0-10.296 4.2926-10.296 9.6258v22.431a15 14.944 0 0 0 15 14.944 15 14.944 0 0 0 15 -14.944v-22.431c0-5.3332-4.592-9.6258-10.296-9.6258h-9.4079zm0.94806 3.0199h7.5118c4.5538 0 8.2201 3.4265 8.2201 7.6843v20.855c0 6.589-5.3622 11.931-11.976 11.931-6.6138-0.0001-11.976-5.342-11.976-11.931v-20.855c0-4.2578 3.6663-7.6843 8.2201-7.6843zm2.7897 5.5763c-0.3529 0-0.63749 0.6066-0.63749 1.3608v5.22c0 0.7541 0.28459 1.3625 0.63749 1.3625h2.0142c0.3529 0 0.63748-0.6084 0.63748-1.3625v-5.22c0-0.7542-0.28458-1.3608-0.63748-1.3608h-2.0142zm-4.1046 11.023-0.35597 0.3674v0.8052l5.5975 4.393 5.5957-4.393v-0.8035l-0.3578-0.3691h-1.0679l-4.17 3.2713-4.17-3.2713h-1.0716zm0 6.5083-0.35597 0.3673v0.8052l5.5975 4.3932 5.5957-4.3932v-0.8034l-0.3578-0.3691h-1.0679l-4.17 3.2713-4.17-3.2713h-1.0716zm0 6.5101-0.35597 0.3673v0.8051l5.5975 4.3932 5.5957-4.3932v-0.8033l-0.3578-0.3691h-1.0679l-4.17 3.2714-4.17-3.2714h-1.0716z" fill="red"/>
 </g>
</svg>
